{
    "asset" : {
        "generator" : "Khronos glTF Blender I/O v3.4.50",
        "version" : "2.0"
    },
    "extensionsUsed" : [
        "KHR_materials_transmission"
    ],
    "scene" : 0,
    "scenes" : [
        {
            "name" : "Scene",
            "nodes" : [
                0,
                1,
                2
            ]
        }
    ],
    "nodes" : [
        {
            "mesh" : 0,
            "name" : "3",
            "rotation" : [
                0.4999999403953552,
                -0.5,
                -0.5,
                0.5
            ],
            "scale" : [
                0.16732743382453918,
                0.12201034277677536,
                0.12911325693130493
            ],
            "translation" : [
                0.002572887111455202,
                0.17075754702091217,
                0.27701225876808167
            ]
        },
        {
            "mesh" : 1,
            "name" : "2",
            "rotation" : [
                0.4999999403953552,
                -0.5,
                -0.5,
                0.5
            ],
            "scale" : [
                0.12201034277677536,
                0.12201034277677536,
                0.12201034277677536
            ],
            "translation" : [
                0.002572887111455202,
                0.0013535134494304657,
                0.3182584047317505
            ]
        },
        {
            "mesh" : 2,
            "name" : "1",
            "rotation" : [
                0.4999999403953552,
                -0.5,
                -0.5,
                0.5
            ],
            "scale" : [
                0.12201034277677536,
                0.12201034277677536,
                0.12201034277677536
            ],
            "translation" : [
                0.002572887111455202,
                0.0013535134494304657,
                0.3182584047317505
            ]
        }
    ],
    "animations" : [
        {
            "channels" : [
                {
                    "sampler" : 0,
                    "target" : {
                        "node" : 0,
                        "path" : "translation"
                    }
                },
                {
                    "sampler" : 1,
                    "target" : {
                        "node" : 0,
                        "path" : "rotation"
                    }
                },
                {
                    "sampler" : 2,
                    "target" : {
                        "node" : 0,
                        "path" : "scale"
                    }
                }
            ],
            "name" : "3Action.002",
            "samplers" : [
                {
                    "input" : 12,
                    "interpolation" : "LINEAR",
                    "output" : 13
                },
                {
                    "input" : 14,
                    "interpolation" : "STEP",
                    "output" : 15
                },
                {
                    "input" : 14,
                    "interpolation" : "STEP",
                    "output" : 16
                }
            ]
        },
        {
            "channels" : [
                {
                    "sampler" : 0,
                    "target" : {
                        "node" : 1,
                        "path" : "translation"
                    }
                },
                {
                    "sampler" : 1,
                    "target" : {
                        "node" : 1,
                        "path" : "rotation"
                    }
                },
                {
                    "sampler" : 2,
                    "target" : {
                        "node" : 1,
                        "path" : "scale"
                    }
                }
            ],
            "name" : "2Action.002",
            "samplers" : [
                {
                    "input" : 12,
                    "interpolation" : "LINEAR",
                    "output" : 17
                },
                {
                    "input" : 14,
                    "interpolation" : "STEP",
                    "output" : 18
                },
                {
                    "input" : 14,
                    "interpolation" : "STEP",
                    "output" : 19
                }
            ]
        },
        {
            "channels" : [
                {
                    "sampler" : 0,
                    "target" : {
                        "node" : 2,
                        "path" : "translation"
                    }
                },
                {
                    "sampler" : 1,
                    "target" : {
                        "node" : 2,
                        "path" : "rotation"
                    }
                },
                {
                    "sampler" : 2,
                    "target" : {
                        "node" : 2,
                        "path" : "scale"
                    }
                }
            ],
            "name" : "1Action.002",
            "samplers" : [
                {
                    "input" : 12,
                    "interpolation" : "LINEAR",
                    "output" : 20
                },
                {
                    "input" : 14,
                    "interpolation" : "STEP",
                    "output" : 21
                },
                {
                    "input" : 14,
                    "interpolation" : "STEP",
                    "output" : 22
                }
            ]
        }
    ],
    "materials" : [
        {
            "doubleSided" : true,
            "emissiveFactor" : [
                0,
                0.00022102166258264333,
                0.15729203820228577
            ],
            "extensions" : {
                "KHR_materials_transmission" : {
                    "transmissionFactor" : 0.6115702390670776
                }
            },
            "name" : "\u041c\u0430\u0442\u0435\u0440\u0438\u0430\u043b",
            "pbrMetallicRoughness" : {
                "baseColorFactor" : [
                    0.8000000715255737,
                    0.08527565747499466,
                    0.30427825450897217,
                    1
                ],
                "metallicFactor" : 0.27272728085517883,
                "roughnessFactor" : 0.38429751992225647
            }
        },
        {
            "doubleSided" : true,
            "name" : "\u041c\u0430\u0442\u0435\u0440\u0438\u0430\u043b.002",
            "pbrMetallicRoughness" : {
                "baseColorFactor" : [
                    0.4073812663555145,
                    0.12279967963695526,
                    0.5805200338363647,
                    1
                ],
                "metallicFactor" : 0
            }
        },
        {
            "doubleSided" : true,
            "name" : "\u041c\u0430\u0442\u0435\u0440\u0438\u0430\u043b.001",
            "pbrMetallicRoughness" : {
                "baseColorFactor" : [
                    0.3049810528755188,
                    0.09619182348251343,
                    0.09445787221193314,
                    1
                ],
                "metallicFactor" : 0,
                "roughnessFactor" : 0.7727272510528564
            }
        }
    ],
    "meshes" : [
        {
            "name" : "\u041f\u043b\u043e\u0441\u043a\u043e\u0441\u0442\u044c.002",
            "primitives" : [
                {
                    "attributes" : {
                        "POSITION" : 0,
                        "TEXCOORD_0" : 1,
                        "NORMAL" : 2
                    },
                    "indices" : 3,
                    "material" : 0
                }
            ]
        },
        {
            "name" : "\u041f\u043b\u043e\u0441\u043a\u043e\u0441\u0442\u044c.001",
            "primitives" : [
                {
                    "attributes" : {
                        "POSITION" : 4,
                        "TEXCOORD_0" : 5,
                        "NORMAL" : 6
                    },
                    "indices" : 7,
                    "material" : 1
                }
            ]
        },
        {
            "name" : "\u041f\u043b\u043e\u0441\u043a\u043e\u0441\u0442\u044c",
            "primitives" : [
                {
                    "attributes" : {
                        "POSITION" : 8,
                        "TEXCOORD_0" : 9,
                        "NORMAL" : 10
                    },
                    "indices" : 11,
                    "material" : 2
                }
            ]
        }
    ],
    "accessors" : [
        {
            "bufferView" : 0,
            "componentType" : 5126,
            "count" : 62833,
            "max" : [
                1.0000001192092896,
                0.04971201717853546,
                1.0000001192092896
            ],
            "min" : [
                -1.3257322311401367,
                -0.049577292054891586,
                -1.0000001192092896
            ],
            "type" : "VEC3"
        },
        {
            "bufferView" : 1,
            "componentType" : 5126,
            "count" : 62833,
            "type" : "VEC2"
        },
        {
            "bufferView" : 2,
            "componentType" : 5126,
            "count" : 62833,
            "type" : "VEC3"
        },
        {
            "bufferView" : 3,
            "componentType" : 5123,
            "count" : 374544,
            "type" : "SCALAR"
        },
        {
            "bufferView" : 4,
            "componentType" : 5126,
            "count" : 308,
            "max" : [
                -0.009885668754577637,
                0.16061171889305115,
                1.7350151538848877
            ],
            "min" : [
                -3.821958303451538,
                -0.807919442653656,
                -1.6457982063293457
            ],
            "type" : "VEC3"
        },
        {
            "bufferView" : 5,
            "componentType" : 5126,
            "count" : 308,
            "type" : "VEC2"
        },
        {
            "bufferView" : 6,
            "componentType" : 5126,
            "count" : 308,
            "type" : "VEC3"
        },
        {
            "bufferView" : 7,
            "componentType" : 5123,
            "count" : 492,
            "type" : "SCALAR"
        },
        {
            "bufferView" : 8,
            "componentType" : 5126,
            "count" : 417,
            "max" : [
                -0.011223793029785156,
                1.734945698217416e-07,
                1.5512901544570923
            ],
            "min" : [
                -3.75697660446167,
                -0.7350537180900574,
                -1.5512901544570923
            ],
            "type" : "VEC3"
        },
        {
            "bufferView" : 9,
            "componentType" : 5126,
            "count" : 417,
            "type" : "VEC2"
        },
        {
            "bufferView" : 10,
            "componentType" : 5126,
            "count" : 417,
            "type" : "VEC3"
        },
        {
            "bufferView" : 11,
            "componentType" : 5123,
            "count" : 468,
            "type" : "SCALAR"
        },
        {
            "bufferView" : 12,
            "componentType" : 5126,
            "count" : 80,
            "max" : [
                3.3333333333333335
            ],
            "min" : [
                0.041666666666666664
            ],
            "type" : "SCALAR"
        },
        {
            "bufferView" : 13,
            "componentType" : 5126,
            "count" : 80,
            "type" : "VEC3"
        },
        {
            "bufferView" : 14,
            "componentType" : 5126,
            "count" : 1,
            "max" : [
                3.3333333333333335
            ],
            "min" : [
                3.3333333333333335
            ],
            "type" : "SCALAR"
        },
        {
            "bufferView" : 15,
            "componentType" : 5126,
            "count" : 1,
            "type" : "VEC4"
        },
        {
            "bufferView" : 16,
            "componentType" : 5126,
            "count" : 1,
            "type" : "VEC3"
        },
        {
            "bufferView" : 17,
            "componentType" : 5126,
            "count" : 80,
            "type" : "VEC3"
        },
        {
            "bufferView" : 18,
            "componentType" : 5126,
            "count" : 1,
            "type" : "VEC4"
        },
        {
            "bufferView" : 19,
            "componentType" : 5126,
            "count" : 1,
            "type" : "VEC3"
        },
        {
            "bufferView" : 20,
            "componentType" : 5126,
            "count" : 80,
            "type" : "VEC3"
        },
        {
            "bufferView" : 21,
            "componentType" : 5126,
            "count" : 1,
            "type" : "VEC4"
        },
        {
            "bufferView" : 22,
            "componentType" : 5126,
            "count" : 1,
            "type" : "VEC3"
        }
    ],
    "bufferViews" : [
        {
            "buffer" : 0,
            "byteLength" : 753996,
            "byteOffset" : 0,
            "target" : 34962
        },
        {
            "buffer" : 0,
            "byteLength" : 502664,
            "byteOffset" : 753996,
            "target" : 34962
        },
        {
            "buffer" : 0,
            "byteLength" : 753996,
            "byteOffset" : 1256660,
            "target" : 34962
        },
        {
            "buffer" : 0,
            "byteLength" : 749088,
            "byteOffset" : 2010656,
            "target" : 34963
        },
        {
            "buffer" : 0,
            "byteLength" : 3696,
            "byteOffset" : 2759744,
            "target" : 34962
        },
        {
            "buffer" : 0,
            "byteLength" : 2464,
            "byteOffset" : 2763440,
            "target" : 34962
        },
        {
            "buffer" : 0,
            "byteLength" : 3696,
            "byteOffset" : 2765904,
            "target" : 34962
        },
        {
            "buffer" : 0,
            "byteLength" : 984,
            "byteOffset" : 2769600,
            "target" : 34963
        },
        {
            "buffer" : 0,
            "byteLength" : 5004,
            "byteOffset" : 2770584,
            "target" : 34962
        },
        {
            "buffer" : 0,
            "byteLength" : 3336,
            "byteOffset" : 2775588,
            "target" : 34962
        },
        {
            "buffer" : 0,
            "byteLength" : 5004,
            "byteOffset" : 2778924,
            "target" : 34962
        },
        {
            "buffer" : 0,
            "byteLength" : 936,
            "byteOffset" : 2783928,
            "target" : 34963
        },
        {
            "buffer" : 0,
            "byteLength" : 320,
            "byteOffset" : 2784864
        },
        {
            "buffer" : 0,
            "byteLength" : 960,
            "byteOffset" : 2785184
        },
        {
            "buffer" : 0,
            "byteLength" : 4,
            "byteOffset" : 2786144
        },
        {
            "buffer" : 0,
            "byteLength" : 16,
            "byteOffset" : 2786148
        },
        {
            "buffer" : 0,
            "byteLength" : 12,
            "byteOffset" : 2786164
        },
        {
            "buffer" : 0,
            "byteLength" : 960,
            "byteOffset" : 2786176
        },
        {
            "buffer" : 0,
            "byteLength" : 16,
            "byteOffset" : 2787136
        },
        {
            "buffer" : 0,
            "byteLength" : 12,
            "byteOffset" : 2787152
        },
        {
            "buffer" : 0,
            "byteLength" : 960,
            "byteOffset" : 2787164
        },
        {
            "buffer" : 0,
            "byteLength" : 16,
            "byteOffset" : 2788124
        },
        {
            "buffer" : 0,
            "byteLength" : 12,
            "byteOffset" : 2788140
        }
    ],
    "buffers" : [
        {
            "byteLength" : 2788152,
            "uri" : "data:application/octet-stream;base64,"
        }
    ]
}
